<svg width="11" height="13" viewBox="0 0 11 13" fill="none" xmlns="http://www.w3.org/2000/svg">
<path d="M0.908072 12.1981C0.665919 12.1981 0.454036 12.1096 0.272422 11.9325C0.0908072 11.7554 0 11.5488 0 11.3128V2.16393C0 1.92783 0.0908072 1.72124 0.272422 1.54417C0.454036 1.3671 0.665919 1.27856 0.908072 1.27856H1.89182V0.393188H2.87556V1.27856H8.0213V0.393188H9.00504V1.27856H9.98879C10.2309 1.27856 10.4428 1.3671 10.6244 1.54417C10.8061 1.72124 10.8969 1.92783 10.8969 2.16393V11.3128C10.8969 11.5488 10.8061 11.7554 10.6244 11.9325C10.4428 12.1096 10.2309 12.1981 9.98879 12.1981H0.908072ZM0.908072 11.3128H9.98879V4.9676H0.908072V11.3128ZM0.908072 4.08223H9.98879V2.16393H0.908072V4.08223ZM5.44843 7.47615C5.27691 7.47615 5.13313 7.41958 5.0171 7.30645C4.90107 7.19332 4.84305 7.05314 4.84305 6.8859C4.84305 6.71866 4.90107 6.57848 5.0171 6.46535C5.13313 6.35222 5.27691 6.29565 5.44843 6.29565C5.61996 6.29565 5.76373 6.35222 5.87976 6.46535C5.9958 6.57848 6.05381 6.71866 6.05381 6.8859C6.05381 7.05314 5.9958 7.19332 5.87976 7.30645C5.76373 7.41958 5.61996 7.47615 5.44843 7.47615ZM3.02691 7.47615C2.85538 7.47615 2.7116 7.41958 2.59557 7.30645C2.47954 7.19332 2.42152 7.05314 2.42152 6.8859C2.42152 6.71866 2.47954 6.57848 2.59557 6.46535C2.7116 6.35222 2.85538 6.29565 3.02691 6.29565C3.19843 6.29565 3.34221 6.35222 3.45824 6.46535C3.57427 6.57848 3.63229 6.71866 3.63229 6.8859C3.63229 7.05314 3.57427 7.19332 3.45824 7.30645C3.34221 7.41958 3.19843 7.47615 3.02691 7.47615ZM7.86996 7.47615C7.69843 7.47615 7.55465 7.41958 7.43862 7.30645C7.32259 7.19332 7.26457 7.05314 7.26457 6.8859C7.26457 6.71866 7.32259 6.57848 7.43862 6.46535C7.55465 6.35222 7.69843 6.29565 7.86996 6.29565C8.04148 6.29565 8.18526 6.35222 8.30129 6.46535C8.41732 6.57848 8.47534 6.71866 8.47534 6.8859C8.47534 7.05314 8.41732 7.19332 8.30129 7.30645C8.18526 7.41958 8.04148 7.47615 7.86996 7.47615ZM5.44843 9.83713C5.27691 9.83713 5.13313 9.78057 5.0171 9.66744C4.90107 9.55431 4.84305 9.41412 4.84305 9.24689C4.84305 9.07965 4.90107 8.93947 5.0171 8.82634C5.13313 8.71321 5.27691 8.65664 5.44843 8.65664C5.61996 8.65664 5.76373 8.71321 5.87976 8.82634C5.9958 8.93947 6.05381 9.07965 6.05381 9.24689C6.05381 9.41412 5.9958 9.55431 5.87976 9.66744C5.76373 9.78057 5.61996 9.83713 5.44843 9.83713ZM3.02691 9.83713C2.85538 9.83713 2.7116 9.78057 2.59557 9.66744C2.47954 9.55431 2.42152 9.41412 2.42152 9.24689C2.42152 9.07965 2.47954 8.93947 2.59557 8.82634C2.7116 8.71321 2.85538 8.65664 3.02691 8.65664C3.19843 8.65664 3.34221 8.71321 3.45824 8.82634C3.57427 8.93947 3.63229 9.07965 3.63229 9.24689C3.63229 9.41412 3.57427 9.55431 3.45824 9.66744C3.34221 9.78057 3.19843 9.83713 3.02691 9.83713ZM7.86996 9.83713C7.69843 9.83713 7.55465 9.78057 7.43862 9.66744C7.32259 9.55431 7.26457 9.41412 7.26457 9.24689C7.26457 9.07965 7.32259 8.93947 7.43862 8.82634C7.55465 8.71321 7.69843 8.65664 7.86996 8.65664C8.04148 8.65664 8.18526 8.71321 8.30129 8.82634C8.41732 8.93947 8.47534 9.07965 8.47534 9.24689C8.47534 9.41412 8.41732 9.55431 8.30129 9.66744C8.18526 9.78057 8.04148 9.83713 7.86996 9.83713Z" fill="#2E3440"/>
</svg>
