<svg width="13" height="13" viewBox="0 0 13 13" fill="none" xmlns="http://www.w3.org/2000/svg">
<path d="M8.31381 9.14359L8.97784 8.47957L6.63161 6.11858V3.15259H5.74624V6.47273L8.31381 9.14359ZM6.14465 12.1981C5.33798 12.1981 4.57558 12.0432 3.85745 11.7333C3.13931 11.4234 2.51218 11.0004 1.97604 10.4643C1.4399 9.92813 1.01689 9.30099 0.707007 8.58286C0.397127 7.86473 0.242188 7.10232 0.242188 6.29565C0.242188 5.48898 0.397127 4.72658 0.707007 4.00845C1.01689 3.29032 1.4399 2.66318 1.97604 2.12704C2.51218 1.5909 3.13931 1.16789 3.85745 0.858008C4.57558 0.548128 5.33798 0.393188 6.14465 0.393188C6.95132 0.393188 7.71373 0.548128 8.43186 0.858008C9.14999 1.16789 9.77713 1.5909 10.3133 2.12704C10.8494 2.66318 11.2724 3.29032 11.5823 4.00845C11.8922 4.72658 12.0471 5.48898 12.0471 6.29565C12.0471 7.10232 11.8922 7.86473 11.5823 8.58286C11.2724 9.30099 10.8494 9.92813 10.3133 10.4643C9.77713 11.0004 9.14999 11.4234 8.43186 11.7333C7.71373 12.0432 6.95132 12.1981 6.14465 12.1981ZM6.14465 11.3128C7.5219 11.3128 8.70239 10.8209 9.68613 9.83713C10.6699 8.85339 11.1617 7.6729 11.1617 6.29565C11.1617 4.91841 10.6699 3.73792 9.68613 2.75417C8.70239 1.77043 7.5219 1.27856 6.14465 1.27856C4.76741 1.27856 3.58692 1.77043 2.60317 2.75417C1.61943 3.73792 1.12756 4.91841 1.12756 6.29565C1.12756 7.6729 1.61943 8.85339 2.60317 9.83713C3.58692 10.8209 4.76741 11.3128 6.14465 11.3128Z" fill="#2E3440"/>
</svg>
