<svg width="88" height="175" viewBox="0 0 88 175" fill="none" xmlns="http://www.w3.org/2000/svg">
<path d="M87.6289 174.65C64.3883 174.65 42.0995 165.466 25.6659 149.117C9.23229 132.769 -1.06959e-05 110.596 -1.14399e-05 87.4753C-1.21839e-05 64.3551 9.2323 42.1818 25.6659 25.8334C42.0995 9.48489 64.3883 0.300418 87.6289 0.300415L87.6289 35.1704C73.6845 35.1704 60.3113 40.6811 50.4511 50.4901C40.5909 60.2992 35.0515 73.6032 35.0515 87.4753C35.0515 101.347 40.5909 114.651 50.4511 124.46C60.3113 134.27 73.6845 139.78 87.6289 139.78L87.6289 157.215L87.6289 174.65Z" fill="#A64AC9"/>
</svg>
