<svg width="317" height="215" viewBox="0 0 317 215" fill="none" xmlns="http://www.w3.org/2000/svg">
<g clip-path="url(#clip0_2_5)">
<path d="M223.217 162.742C221.149 162.742 219.083 162.437 217.082 161.838C212.493 160.463 208.574 157.656 205.818 153.81C203.425 154.115 200.995 154.272 198.554 154.272C183.453 154.272 168.975 148.233 158.29 137.59C150.12 140.788 141.507 142.405 132.638 142.405C125.905 142.405 119.287 141.464 112.907 139.598C111.884 140.97 110.694 142.217 109.347 143.327C104.976 146.935 99.2814 148.684 93.6519 148.136C87.9656 147.586 82.8249 144.836 79.1733 140.397C76.7522 137.447 75.1608 133.924 74.5555 130.202C74.2486 128.396 74.1833 126.502 74.3737 124.61C74.4078 124.271 74.4475 123.951 74.4902 123.629L75.1637 119.63L82.0151 121.427C70.0684 108.353 61.7109 89.0347 61.7109 71.1998C61.7109 31.9413 93.5297 0 132.64 0C159.623 0 184.164 15.3816 196.13 39.4867C196.943 39.4524 197.75 39.4325 198.554 39.4325C230.094 39.4325 255.755 65.1921 255.755 96.8538C255.755 107.363 252.888 117.653 247.46 126.613C246.105 128.849 244.587 131.006 242.953 133.02C241.226 135.148 239.296 137.088 237.298 138.939C237.31 138.948 236.863 139.444 236.807 139.49L244.888 141.721L243.968 146.602C243.968 146.619 243.868 146.995 243.752 147.375C243.215 149.175 242.459 150.883 241.498 152.455C239.546 155.667 236.747 158.326 233.408 160.137C230.262 161.841 226.741 162.739 223.22 162.739L223.217 162.742Z" fill="#A64AC9"/>
<path d="M244.525 144.559C244.471 144.879 244.411 145.195 244.346 145.532C244.036 147.05 242.959 149.851 242.959 149.851L242.911 149.951C242.521 150.841 242.075 151.699 241.575 152.521C239.623 155.733 236.824 158.392 233.485 160.203C230.339 161.906 226.818 162.802 223.294 162.802C221.225 162.802 219.159 162.5 217.159 161.901C212.57 160.526 208.651 157.719 205.894 153.876C203.502 154.181 201.072 154.338 198.634 154.338C182.322 154.338 166.738 147.292 155.88 135.011C154.638 133.616 153.43 132.113 152.311 130.561C145.201 120.725 141.441 109.092 141.441 96.9254C141.441 69.8592 160.589 46.2135 186.974 40.7021C188.816 40.317 190.714 40.0232 192.621 39.8263C194.604 39.6152 196.636 39.5068 198.637 39.5068C230.177 39.5068 255.838 65.2664 255.838 96.9282C255.838 107.435 252.97 117.727 247.54 126.687C246.184 128.924 244.67 131.078 243.033 133.094C241.589 134.874 240.043 136.566 238.406 138.155L238.205 138.346L244.834 137.564C244.834 137.564 245.238 141.05 244.53 144.565L244.525 144.559Z" fill="#17E9E0"/>
<path d="M199.713 48.0019C199.111 46.2475 198.418 44.4731 197.659 42.7444C197.179 41.6433 196.664 40.5649 196.136 39.498C194.936 39.5494 193.737 39.6264 192.552 39.7548C190.645 39.9516 188.747 40.2454 186.906 40.6334C160.52 46.1448 141.373 69.7905 141.373 96.8567C141.373 109.023 145.132 120.656 152.242 130.495C153.365 132.05 154.57 133.551 155.812 134.946C156.616 135.858 157.451 136.734 158.307 137.587C159.415 137.153 160.515 136.691 161.606 136.201C163.291 135.448 164.988 134.597 166.63 133.687C177.278 127.831 186.318 119.276 192.768 108.958C193.845 107.235 194.874 105.42 195.823 103.56C200.898 93.616 203.581 82.425 203.581 71.2026C203.581 63.2636 202.279 55.4559 199.713 48.0047V48.0019Z" fill="#5E99D3"/>
<path d="M19.7898 215C16.0529 215 12.6769 214.121 9.66186 212.359C6.64679 210.59 4.28248 208.154 2.56608 205.047C0.855359 201.943 0 198.437 0 194.532C0 190.627 0.863884 187.124 2.59449 184.017C4.32226 180.914 6.6951 178.48 9.71017 176.717C12.7309 174.957 16.1097 174.076 19.8466 174.076C22.8787 174.076 25.6494 174.646 28.153 175.782C30.6565 176.92 32.7736 178.566 34.5042 180.722L30.0598 185.215C27.3743 182.112 24.0779 180.557 20.1649 180.557C17.6215 180.557 15.3425 181.156 13.3305 182.346C11.3214 183.538 9.7528 185.195 8.62463 187.318C7.49363 189.44 6.93096 191.848 6.93096 194.535C6.93096 197.222 7.49363 199.63 8.62463 201.752C9.7528 203.875 11.3214 205.535 13.3305 206.733C15.3453 207.925 17.6215 208.522 20.1649 208.522C24.0751 208.522 27.3715 206.95 30.0598 203.801L34.5042 208.345C32.7736 210.507 30.6452 212.159 28.1245 213.294C25.6011 214.43 22.8219 215 19.7898 215V215Z" fill="#2E3440"/>
<path d="M55.027 214.823C52.1654 214.823 49.5908 214.164 47.3004 212.838C45.01 211.514 43.2168 209.671 41.9267 207.304C40.6422 204.933 40 202.249 40 199.253C40 196.258 40.6422 193.585 41.9267 191.235C43.2168 188.884 45.0071 187.05 47.3004 185.723C49.5908 184.4 52.1654 183.738 55.027 183.738C57.8887 183.738 60.5087 184.4 62.802 185.723C65.0924 187.05 66.8799 188.884 68.1643 191.235C69.4545 193.585 70.0995 196.258 70.0995 199.253C70.0995 202.249 69.4545 204.933 68.1643 207.304C66.8799 209.669 65.0896 211.514 62.802 212.838C60.5087 214.164 57.9171 214.823 55.027 214.823ZM55.027 208.75C57.4596 208.75 59.4715 207.883 61.0572 206.14C62.6457 204.394 63.4385 202.1 63.4385 199.256C63.4385 196.412 62.6457 194.124 61.0572 192.381C59.4687 190.636 57.4567 189.76 55.027 189.76C52.5974 189.76 50.5883 190.633 49.0139 192.381C47.4453 194.124 46.661 196.415 46.661 199.256C46.661 202.098 47.4453 204.394 49.0139 206.14C50.5883 207.883 52.5917 208.75 55.027 208.75Z" fill="#2E3440"/>
<path d="M94.331 183.738C97.8945 183.738 100.75 184.859 102.899 187.098C105.053 189.332 106.133 192.647 106.133 197.04V214.43H99.52V197.944C99.52 195.297 98.9346 193.3 97.7667 191.953C96.6044 190.61 94.9505 189.937 92.7993 189.937C90.3611 189.937 88.4344 190.724 87.0193 192.299C85.6098 193.868 84.9079 196.127 84.9079 199.079V214.43H78.2952V184.083H84.5867V188.005C85.6837 186.608 87.0619 185.546 88.7215 184.822C90.3782 184.1 92.248 183.741 94.3282 183.741L94.331 183.738Z" fill="#2E3440"/>
<path d="M127.872 177.601C125.084 177.601 123.689 179.233 123.689 182.491V184.311H131.472V189.991H123.902V214.429H117.289V189.991H112.632V184.311H117.289V182.377C117.289 179.119 118.17 176.552 119.932 174.68C121.7 172.803 124.186 171.862 127.397 171.862C129.935 171.862 131.924 172.41 133.371 173.505L131.521 178.851C130.39 178.018 129.174 177.601 127.872 177.601Z" fill="#2E3440"/>
<path d="M144.055 188.51C145.965 185.327 149.318 183.738 154.115 183.738V190.499C153.547 190.39 153.032 190.333 152.575 190.333C150 190.333 147.988 191.14 146.545 192.747C145.098 194.355 144.377 196.677 144.377 199.716V214.433H137.764V184.086H144.055V188.516V188.51Z" fill="#2E3440"/>
<path d="M174.536 214.823C171.674 214.823 169.1 214.164 166.809 212.838C164.516 211.514 162.726 209.671 161.435 207.304C160.151 204.933 159.509 202.249 159.509 199.253C159.509 196.258 160.151 193.585 161.435 191.235C162.726 188.884 164.516 187.05 166.809 185.723C169.1 184.4 171.674 183.738 174.536 183.738C177.397 183.738 180.018 184.4 182.311 185.723C184.601 187.05 186.389 188.884 187.676 191.235C188.966 193.585 189.611 196.258 189.611 199.253C189.611 202.249 188.966 204.933 187.676 207.304C186.391 209.669 184.601 211.514 182.311 212.838C180.02 214.164 177.426 214.823 174.536 214.823ZM174.536 208.75C176.968 208.75 178.98 207.883 180.569 206.14C182.157 204.394 182.95 202.1 182.95 199.256C182.95 196.412 182.157 194.124 180.569 192.381C178.98 190.636 176.968 189.76 174.536 189.76C172.103 189.76 170.097 190.633 168.523 192.381C166.954 194.124 166.17 196.415 166.17 199.256C166.17 202.098 166.954 204.394 168.523 206.14C170.097 207.883 172.1 208.75 174.536 208.75Z" fill="#2E3440"/>
<path d="M213.84 183.738C217.403 183.738 220.259 184.859 222.408 187.098C224.562 189.332 225.641 192.647 225.641 197.04V214.43H219.029V197.944C219.029 195.297 218.443 193.3 217.275 191.953C216.113 190.61 214.459 189.937 212.308 189.937C209.87 189.937 207.943 190.724 206.528 192.299C205.119 193.868 204.417 196.127 204.417 199.079V214.43H197.804V184.083H204.096V188.005C205.192 186.608 206.571 185.546 208.23 184.822C209.887 184.1 211.757 183.741 213.834 183.741L213.84 183.738Z" fill="#2E3440"/>
<path d="M252.879 212.784C252.104 213.465 251.16 213.976 250.052 214.313C248.941 214.652 247.77 214.823 246.537 214.823C243.431 214.823 241.029 213.956 239.333 212.213C237.642 210.464 236.795 207.928 236.795 204.599V189.988H232.138V184.308H236.795V177.371H243.408V184.308H250.978V189.988H243.408V204.422C243.408 205.9 243.743 207.027 244.414 207.803C245.085 208.582 246.054 208.967 247.33 208.967C248.804 208.967 250.041 208.55 251.027 207.717L252.877 212.781L252.879 212.784Z" fill="#2E3440"/>
<path d="M266.579 215C264.218 215 262.038 214.495 260.043 213.491C258.054 212.487 256.426 211.075 255.156 209.257L259.066 204.191C261.112 207.229 263.564 208.747 266.423 208.747C270.268 208.747 272.194 206.302 272.194 201.415V180.833H259.017V174.646H279.066V201.01C279.066 205.669 278.006 209.169 275.892 211.505C273.774 213.836 270.668 215 266.579 215V215Z" fill="#2E3440"/>
<path d="M302.033 215C299.171 215 296.409 214.564 293.746 213.691C291.086 212.818 288.978 211.662 287.423 210.228L289.805 204.488C291.319 205.772 293.178 206.821 295.38 207.64C297.588 208.45 299.805 208.858 302.03 208.858C304.781 208.858 306.832 208.388 308.188 207.443C309.549 206.493 310.231 205.244 310.231 203.689C310.231 202.554 309.847 201.618 309.089 200.882C308.333 200.141 307.369 199.561 306.204 199.145C305.042 198.728 303.454 198.255 301.442 197.719C298.62 197 296.335 196.281 294.587 195.565C292.845 194.846 291.348 193.719 290.095 192.184C288.841 190.644 288.216 188.57 288.216 185.954C288.216 183.758 288.77 181.761 289.881 179.964C290.998 178.161 292.675 176.729 294.917 175.667C297.156 174.606 299.896 174.076 303.135 174.076C305.394 174.076 307.617 174.384 309.805 174.991C311.993 175.593 313.88 176.466 315.468 177.602L313.3 183.344C311.675 182.32 309.978 181.541 308.216 181.013C306.454 180.48 304.744 180.212 303.084 180.212C300.367 180.212 298.344 180.705 297.023 181.689C295.698 182.674 295.039 183.983 295.039 185.609C295.039 186.747 295.417 187.677 296.173 188.396C296.932 189.118 297.895 189.686 299.057 190.102C300.225 190.518 301.811 190.995 303.82 191.525C306.574 192.207 308.836 192.918 310.598 193.656C312.359 194.392 313.866 195.519 315.119 197.037C316.369 198.549 316.997 200.594 316.997 203.173C316.997 205.372 316.44 207.361 315.332 209.144C314.221 210.926 312.536 212.347 310.279 213.408C308.017 214.469 305.269 215 302.033 215V215Z" fill="#2E3440"/>
<path d="M186.917 33.7555C175.025 16.437 155.127 5.06055 132.626 5.06055C96.2805 5.06055 66.7124 34.7511 66.7124 71.2282C66.7124 90.5693 75.0159 107.996 88.2413 120.1C88.7358 120.554 89.2388 120.999 89.7474 121.429C89.5627 121.609 89.3666 121.783 89.1677 121.946C87.8065 123.075 86.2379 123.851 84.5613 124.254C83.3422 124.547 82.0748 124.633 80.8074 124.51C80.347 124.459 79.898 124.388 79.4519 124.288C79.4178 124.567 79.3808 124.85 79.3524 125.129C79.2075 126.581 79.2586 128.022 79.4945 129.414C79.9548 132.247 81.1569 134.931 83.0267 137.21C85.8202 140.605 89.7531 142.719 94.1237 143.144C98.4857 143.569 102.765 142.254 106.153 139.456C108.108 137.844 109.628 135.844 110.654 133.599C117.531 136.058 124.925 137.39 132.629 137.39C142.208 137.39 151.322 135.328 159.54 131.622C159.54 131.622 161.132 130.963 164.198 129.291C174.121 123.834 182.501 115.892 188.5 106.299C189.518 104.673 190.464 102.998 191.336 101.287C195.943 92.2609 198.546 82.0398 198.546 71.2225C198.546 67.2345 198.19 63.3292 197.514 59.5323L192.527 60.1199C193.186 63.7228 193.533 67.4342 193.533 71.2254C193.533 79.8204 191.757 88.0048 188.551 95.436C187.693 97.4357 186.724 99.3784 185.656 101.261C179.887 111.488 171.268 119.889 160.896 125.369C158.267 126.71 156.281 127.563 156.281 127.563C149.003 130.649 141.012 132.361 132.632 132.361C125.59 132.361 118.827 131.146 112.521 128.923C111.913 128.715 111.31 128.493 110.716 128.262C110.532 128.19 110.344 128.116 110.157 128.039C109.506 127.78 108.861 127.514 108.23 127.218C107.608 126.938 106.991 126.644 106.38 126.333C105.178 125.728 104.007 125.061 102.87 124.356L100.1 128.541C100.68 128.909 101.259 129.269 101.862 129.605C103.203 130.367 104.584 131.086 105.996 131.728L105.991 131.742C105.459 132.829 104.766 133.827 103.913 134.703L104.192 134.423C103.891 134.774 103.561 135.094 103.217 135.396L103.834 134.786C103.564 135.057 103.277 135.325 102.976 135.576C100.626 137.516 97.6531 138.431 94.621 138.135C91.5832 137.841 88.8466 136.372 86.9057 134.013C85.7804 132.638 84.9989 131.057 84.6124 129.374C87.4343 128.915 90.0998 127.705 92.3618 125.837C92.8421 125.443 93.2854 125.024 93.7088 124.585L93.7173 124.579C93.7884 124.508 93.8168 124.479 94.0555 124.242C94.7574 123.523 95.6667 122.365 95.6667 122.365C96.0759 121.803 96.4482 121.221 96.7835 120.616L96.613 120.488C95.3371 119.552 94.0896 118.563 92.8932 117.518C92.7795 117.427 92.6716 117.324 92.5636 117.233C91.1882 116.024 89.8781 114.757 88.6079 113.442C78.1646 102.454 71.7366 87.5854 71.7366 71.2311C71.7366 37.5211 99.0541 10.0984 132.635 10.0984C152.521 10.0984 170.208 19.7176 181.325 34.56" fill="white"/>
<path d="M155.732 116.76C152.936 110.712 151.376 103.98 151.376 96.8854C151.376 73.7474 167.983 54.4377 189.864 50.3384C189.864 50.3384 191.899 49.9334 194.942 49.6681C196.133 49.5739 197.329 49.5311 198.54 49.5311C224.556 49.5311 245.713 70.7693 245.713 96.8854C245.713 107.452 242.246 117.225 236.392 125.107C235.031 126.95 233.542 128.681 231.922 130.299C231.231 131.003 230.509 131.688 229.771 132.341C229.742 132.361 229.714 132.393 229.685 132.413C228.151 133.773 226.525 135.037 224.82 136.181L224.769 136.209C224.906 137.117 225.121 138.007 225.414 138.885C225.414 138.885 225.923 140.266 226.375 141.165C226.559 141.538 226.548 141.504 226.633 141.667C226.971 142.286 227.344 142.885 227.75 143.45C229.017 145.247 230.629 146.744 232.493 147.874C231.495 149.292 230.185 150.456 228.625 151.303C225.94 152.764 222.857 153.086 219.927 152.21C217.167 151.383 214.854 149.577 213.385 147.098C214.883 146.659 216.358 146.14 217.798 145.566C218.435 145.315 219.066 145.041 219.691 144.762L217.528 140.229C216.304 140.768 215.048 141.264 213.774 141.695C213.129 141.909 212.476 142.12 211.825 142.314C210.219 142.788 208.58 143.179 206.912 143.478C204.198 143.969 201.396 144.225 198.543 144.225C188.708 144.225 179.566 141.187 172.001 136.001L167.4 138.88C176.093 145.398 186.875 149.26 198.543 149.26C201.902 149.26 205.184 148.944 208.364 148.328C208.477 148.579 208.608 148.83 208.736 149.075C210.828 152.943 214.295 155.779 218.5 157.037C222.706 158.295 227.142 157.827 231.01 155.736C233.595 154.335 235.718 152.304 237.207 149.854C237.943 148.644 238.526 147.338 238.941 145.934C239.026 145.66 239.097 145.387 239.162 145.116C238.711 145.044 238.267 144.942 237.824 144.807C236.605 144.448 235.46 143.886 234.448 143.153C233.638 142.571 232.908 141.889 232.277 141.119C232.212 141.042 232.149 140.962 232.084 140.876C231.697 140.374 231.345 139.841 231.044 139.279C230.859 138.934 230.686 138.583 230.549 138.223C233.689 135.776 236.54 132.972 239.046 129.879C240.544 128.031 241.919 126.074 243.158 124.031C247.96 116.107 250.723 106.813 250.723 96.8883C250.723 67.9965 227.315 44.499 198.537 44.499C196.682 44.499 194.846 44.5989 193.036 44.7928C190.728 45.0467 187.898 45.5916 187.898 45.5916C164.212 50.541 146.357 71.6564 146.357 96.8854C146.357 104.699 148.071 112.119 151.143 118.785L155.729 116.76H155.732Z" fill="white"/>
</g>
<defs>
<clipPath id="clip0_2_5">
<rect width="317" height="215" fill="white"/>
</clipPath>
</defs>
</svg>
