<svg width="29" height="29" viewBox="0 0 29 29" fill="none" xmlns="http://www.w3.org/2000/svg">
<path d="M4.14736 9.49543L3.02434 7.0508L0.553711 5.93961L3.02434 4.82841L4.14736 2.38379L5.27037 4.82841L7.741 5.93961L5.27037 7.0508L4.14736 9.49543ZM23.6129 5.05065L22.9766 3.6061L21.5166 2.97643L22.9766 2.34675L23.6129 0.902199L24.2493 2.34675L25.7092 2.97643L24.2493 3.6061L23.6129 5.05065ZM26.6076 10.977L25.9713 9.53247L24.5114 8.90279L25.9713 8.27311L26.6076 6.82856L27.244 8.27311L28.7039 8.90279L27.244 9.53247L26.6076 10.977ZM14.6288 16.9404C13.5557 16.9404 12.6573 16.5577 11.9336 15.7922C11.2099 15.0267 10.848 14.1007 10.848 13.0142V3.71722C10.848 2.68011 11.2161 1.8035 11.9523 1.0874C12.6885 0.371296 13.5807 0.0132446 14.6288 0.0132446C15.677 0.0132446 16.5691 0.371296 17.3053 1.0874C18.0415 1.8035 18.4096 2.68011 18.4096 3.71722V13.0142C18.4096 14.1007 18.0478 15.0267 17.3241 15.7922C16.6003 16.5577 15.7019 16.9404 14.6288 16.9404ZM13.5058 28.1635V23.1261C10.8605 22.8544 8.63941 21.7556 6.84259 19.8295C5.04577 17.9035 4.14736 15.6317 4.14736 13.0142H6.39339C6.39339 15.2613 7.19821 17.1503 8.80787 18.6813C10.4175 20.2123 12.3578 20.9778 14.6288 20.9778C16.8998 20.9778 18.8401 20.2123 20.4498 18.6813C22.0594 17.1503 22.8643 15.2613 22.8643 13.0142H25.1103C25.1103 15.6317 24.2119 17.9035 22.4151 19.8295C20.6182 21.7556 18.3972 22.8544 15.7518 23.1261V28.1635H13.5058ZM14.6288 14.718C15.078 14.718 15.4461 14.5514 15.7331 14.218C16.0201 13.8846 16.1636 13.4834 16.1636 13.0142V3.71722C16.1636 3.29744 16.0139 2.94556 15.7144 2.66159C15.4149 2.37762 15.0531 2.23563 14.6288 2.23563C14.2046 2.23563 13.8427 2.37762 13.5432 2.66159C13.2438 2.94556 13.094 3.29744 13.094 3.71722V13.0142C13.094 13.4834 13.2375 13.8846 13.5245 14.218C13.8115 14.5514 14.1796 14.718 14.6288 14.718Z" fill="#2E3440"/>
</svg>
